<?xml version="1.0" encoding="UTF-8" standalone="no"?>
<svg
   xmlns:dc="http://purl.org/dc/elements/1.1/"
   xmlns:cc="http://creativecommons.org/ns#"
   xmlns:rdf="http://www.w3.org/1999/02/22-rdf-syntax-ns#"
   xmlns:svg="http://www.w3.org/2000/svg"
   xmlns="http://www.w3.org/2000/svg"
   xmlns:sodipodi="http://sodipodi.sourceforge.net/DTD/sodipodi-0.dtd"
   xmlns:inkscape="http://www.inkscape.org/namespaces/inkscape"
   width="594mm"
   height="420mm"
   viewBox="0 0 594 420"
   version="1.1"
   id="svg8"
   inkscape:version="1.0.1 (3bc2e813f5, 2020-09-07)"
   sodipodi:docname="colordarklogo.svg"
   inkscape:export-filename="C:\Users\josem\Documents\GitHub\chromeosdesktop\logos\textlogo\colordarklogo.png"
   inkscape:export-xdpi="96"
   inkscape:export-ydpi="96">
  <defs
     id="defs2" />
  <sodipodi:namedview
     id="base"
     pagecolor="#4f4f4f"
     bordercolor="#666666"
     borderopacity="1.0"
     inkscape:pageopacity="0"
     inkscape:pageshadow="2"
     inkscape:zoom="0.24748737"
     inkscape:cx="852.39875"
     inkscape:cy="775.32458"
     inkscape:document-units="mm"
     inkscape:current-layer="g961"
     inkscape:document-rotation="0"
     showgrid="false"
     inkscape:window-width="1920"
     inkscape:window-height="1017"
     inkscape:window-x="-8"
     inkscape:window-y="-8"
     inkscape:window-maximized="1" />
  <metadata
     id="metadata5">
    <rdf:RDF>
      <cc:Work
         rdf:about="">
        <dc:format>image/svg+xml</dc:format>
        <dc:type
           rdf:resource="http://purl.org/dc/dcmitype/StillImage" />
        <dc:title />
      </cc:Work>
    </rdf:RDF>
  </metadata>
  <g
     inkscape:label="white"
     inkscape:groupmode="layer"
     id="layer1"
     style="display:none">
    <g
       aria-label="neo"
       id="text835"
       style="font-style:normal;font-weight:normal;font-size:10.5833px;line-height:1.25;font-family:sans-serif;fill:#000000;fill-opacity:1;stroke:none;stroke-width:0.264583" />
    <path
       style="font-style:normal;font-weight:normal;font-size:10.5833px;line-height:1.25;font-family:sans-serif;fill:#ffffff;fill-opacity:0.237745;fill-rule:evenodd;stroke:none;stroke-width:42.3379;stroke-linecap:round;stroke-linejoin:round;stroke-opacity:0.311275"
       id="path934"
       d="m 164.58855,187.02134 c 2.14661,-5.71965 4.17504,-11.74727 6.84299,-16.77069 2.83822,-5.344 4.78354,-7.68875 8.06491,-12.27011 1.68987,-1.9552 6.81373,-7.66276 5.06963,-5.86558 -5.80904,5.98584 -11.77385,11.57224 -17.26936,18.4366 -1.99304,2.48948 4.41645,-3.65862 6.68681,-5.21804 6.07567,-4.17314 10.96151,-6.49907 17.48106,-8.63929 4.00578,-1.315 8.05978,-2.10932 12.08965,-3.164 20.65573,-3.79291 41.4614,-5.64259 62.22887,-4.82551 13.12328,0.51631 18.97211,1.58747 31.96169,3.30783 17.85365,2.91059 35.51283,8.9887 52.7599,17.68297 9.87867,4.97984 12.38484,6.80859 21.85981,12.69835 20.09081,13.73419 40.71623,24.61331 61.59798,33.73585 17.00393,7.07329 34.28585,12.53907 51.79868,12.70829 3.40056,0.0329 6.79852,-0.34236 10.19776,-0.51351 12.75586,-1.44458 25.25305,-6.59249 37.16559,-14.80911 6.63572,-4.57697 9.7204,-7.55022 15.98822,-13.02201 14.05925,-12.71754 27.31299,-27.07181 40.10184,-43.19337 0,0 -25.4862,17.94211 -25.4862,17.94211 v 0 c -6.82015,8.62189 -25.80805,29.88268 5.92245,-4.08793 -6.41917,5.93981 -9.24197,8.86684 -16.03394,13.82205 -11.81542,8.6202 -24.2354,14.35291 -36.96642,16.31247 -3.376,0.26871 -6.74881,0.74537 -10.128,0.80613 -17.43458,0.31345 -34.73095,-4.97503 -51.69418,-11.67756 -9.24598,-4.0448 -11.7809,-4.9979 -20.91387,-9.6104 -13.71796,-6.92806 -27.2036,-15.20822 -40.63057,-23.73588 -6.95687,-4.00184 -15.38457,-8.98623 -22.39358,-12.43842 -17.67548,-8.70583 -35.79608,-14.27226 -54.06542,-16.99289 -5.29375,-0.64364 -10.58298,-1.41876 -15.88121,-1.93089 -25.76814,-2.49078 -51.63212,-2.0376 -77.3721,1.18908 -7.40126,1.31082 -13.81912,1.98481 -21.03937,4.87262 -2.94602,1.17828 -11.3433,5.92296 -14.17984,8.62491 -24.66936,23.49893 -21.12596,19.52292 -34.26599,35.81569 -3.74359,5.59276 -5.07944,7.21045 -8.36571,13.58999 -2.90794,5.64513 -5.25149,12.16532 -7.92804,18.14444 0,0 26.79596,-20.92419 26.79596,-20.92419 z" />
    <g
       id="g903"
       transform="matrix(0.81454775,0,0,0.81454775,-0.27405662,100.78359)"
       style="font-style:normal;font-weight:normal;font-size:10.5833px;line-height:1.25;font-family:sans-serif;fill:#000000;fill-opacity:1;stroke:none;stroke-width:0.264583">
      <path
         d="m 50.297755,95.660448 q 8.234263,0 13.307909,5.239992 5.073638,5.15681 5.073638,14.47235 v 27.03168 H 57.034881 V 116.9531 q 0,-5.48951 -2.744757,-8.40062 -2.744757,-2.99428 -7.485698,-2.99428 -4.824114,0 -7.652043,2.99428 -2.744758,2.91111 -2.744758,8.40062 v 25.45137 H 24.763205 V 96.32584 h 11.64442 v 5.73904 q 2.328881,-2.994283 5.905383,-4.657771 3.659673,-1.746661 7.984747,-1.746661 z"
         style="font-style:normal;font-variant:normal;font-weight:600;font-stretch:normal;font-size:10.5833px;line-height:1.25;font-family:Poppins;-inkscape-font-specification:'Poppins, Semi-Bold';font-variant-ligatures:normal;font-variant-caps:normal;font-variant-numeric:normal;font-variant-east-asian:normal;fill:#ffffff;fill-opacity:1;stroke:none;stroke-width:0.550165"
         id="path848" />
      <path
         d="m 122.57628,118.36707 q 0,2.49523 -0.33268,4.49142 H 88.557962 q 0.4159,4.99046 3.493329,7.81839 3.077454,2.82793 7.568871,2.82793 6.487598,0 9.232358,-5.57269 h 12.55934 q -1.99619,6.65396 -7.65204,10.97903 -5.65587,4.2419 -13.890134,4.2419 -6.653954,0 -11.977116,-2.91111 -5.23999,-2.99428 -8.234271,-8.40062 -2.911102,-5.40633 -2.911102,-12.47616 0,-7.15301 2.911102,-12.55934 2.911101,-5.40634 8.151091,-8.317443 5.23999,-2.911101 12.060296,-2.911101 6.570774,0 11.727594,2.827929 5.23999,2.827925 8.06792,8.067915 2.91111,5.15681 2.91111,11.89395 z m -12.0603,-3.32698 q -0.0832,-4.49142 -3.24381,-7.153 -3.16062,-2.74476 -7.735211,-2.74476 -4.325074,0 -7.319355,2.66159 -2.911101,2.5784 -3.576501,7.23617 z"
         style="font-style:normal;font-variant:normal;font-weight:600;font-stretch:normal;font-size:10.5833px;line-height:1.25;font-family:Poppins;-inkscape-font-specification:'Poppins, Semi-Bold';font-variant-ligatures:normal;font-variant-caps:normal;font-variant-numeric:normal;font-variant-east-asian:normal;fill:#ffffff;fill-opacity:1;stroke:none;stroke-width:0.550165"
         id="path850" />
      <path
         d="m 151.52086,143.15305 q -6.65395,0 -11.97711,-2.91111 -5.32316,-2.99428 -8.40062,-8.40062 -2.99428,-5.40633 -2.99428,-12.47616 0,-7.06983 3.07746,-12.47617 3.16062,-5.40633 8.56696,-8.317441 5.40634,-2.994273 12.06029,-2.994273 6.65396,0 12.0603,2.994273 5.40633,2.911111 8.48378,8.317441 3.16064,5.40634 3.16064,12.47617 0,7.06983 -3.24381,12.47616 -3.16063,5.40634 -8.65014,8.40062 -5.40634,2.91111 -12.14347,2.91111 z m 0,-10.14729 q 3.16063,0 5.90539,-1.49713 2.82793,-1.58032 4.49141,-4.65777 1.66349,-3.07746 1.66349,-7.4857 0,-6.57078 -3.49332,-10.06411 -3.41015,-3.5765 -8.40061,-3.5765 -4.99047,0 -8.40063,3.5765 -3.32697,3.49333 -3.32697,10.06411 0,6.57078 3.2438,10.14728 3.32698,3.49332 8.31744,3.49332 z"
         style="font-style:normal;font-variant:normal;font-weight:600;font-stretch:normal;font-size:10.5833px;line-height:1.25;font-family:Poppins;-inkscape-font-specification:'Poppins, Semi-Bold';font-variant-ligatures:normal;font-variant-caps:normal;font-variant-numeric:normal;font-variant-east-asian:normal;fill:#ffffff;fill-opacity:1;stroke:none;stroke-width:0.550165"
         id="path852" />
    </g>
    <g
       id="g898"
       style="font-style:normal;font-weight:normal;font-size:10.5833px;line-height:1.25;font-family:sans-serif;fill:#000000;fill-opacity:1;stroke:none;stroke-width:0.264583"
       transform="matrix(1.0819978,0,0,1.0819978,-40.217107,-11.88085)">
      <path
         d="m 195.76954,163.23751 v 14.55552 h 19.54599 v 9.23237 h -19.54599 v 15.38727 h 22.04122 v 9.48188 h -33.68564 v -58.13892 h 33.68564 v 9.48188 z"
         style="font-style:normal;font-variant:normal;font-weight:600;font-stretch:normal;font-size:10.5833px;line-height:1.25;font-family:Poppins;-inkscape-font-specification:'Poppins, Semi-Bold';font-variant-ligatures:normal;font-variant-caps:normal;font-variant-numeric:normal;font-variant-east-asian:normal;fill:#ffffff;fill-opacity:1;stroke:none;stroke-width:0.550165"
         id="path854" />
      <path
         d="m 246.00686,212.64312 q -5.65585,0 -10.14727,-1.99618 -4.49142,-2.07937 -7.153,-5.57269 -2.57841,-3.49333 -2.82793,-7.73522 h 11.72759 q 0.33267,2.66158 2.5784,4.40824 2.32889,1.74666 5.73904,1.74666 3.32698,0 5.15682,-1.33079 1.913,-1.33079 1.913,-3.41015 0,-2.24571 -2.32888,-3.32697 -2.24571,-1.16445 -7.23617,-2.49524 -5.15682,-1.24762 -8.4838,-2.5784 -3.24379,-1.3308 -5.65585,-4.07555 -2.32889,-2.74476 -2.32889,-7.40253 0,-3.82602 2.16253,-6.98665 2.24572,-3.16063 6.32126,-4.99047 4.15872,-1.82983 9.73141,-1.82983 8.23427,0 13.14156,4.15872 4.90729,4.07554 5.40634,11.0622 h -11.14537 q -0.24953,-2.74476 -2.32888,-4.32507 -1.9962,-1.66349 -5.40635,-1.66349 -3.16062,0 -4.90729,1.16444 -1.66349,1.16444 -1.66349,3.24381 0,2.32888 2.32889,3.5765 2.32888,1.16444 7.23617,2.41205 4.99047,1.24762 8.23428,2.57841 3.24379,1.33079 5.57268,4.15873 2.41205,2.74474 2.49523,7.31934 0,3.99237 -2.2457,7.15301 -2.16254,3.16062 -6.32126,4.99046 -4.07555,1.74666 -9.56507,1.74666 z"
         style="font-style:normal;font-variant:normal;font-weight:600;font-stretch:normal;font-size:10.5833px;line-height:1.25;font-family:Poppins;-inkscape-font-specification:'Poppins, Semi-Bold';font-variant-ligatures:normal;font-variant-caps:normal;font-variant-numeric:normal;font-variant-east-asian:normal;fill:#ffffff;fill-opacity:1;stroke:none;stroke-width:0.550165"
         id="path856" />
      <path
         d="m 270.70951,188.85523 q 0,-7.153 2.9111,-12.47616 2.91111,-5.40634 8.06792,-8.31745 5.15682,-2.99427 11.81078,-2.99427 8.56696,0 14.13965,4.32507 5.65586,4.24189 7.56887,11.97711 h -12.55934 q -0.99809,-2.99428 -3.41015,-4.65777 -2.32889,-1.74666 -5.82221,-1.74666 -4.99047,0 -7.90157,3.65968 -2.91111,3.5765 -2.91111,10.23045 0,6.57079 2.91111,10.23046 2.9111,3.5765 7.90157,3.5765 7.06983,0 9.23236,-6.32126 h 12.55934 q -1.91301,7.4857 -7.56887,11.89395 -5.65587,4.40824 -14.13965,4.40824 -6.65396,0 -11.81078,-2.91111 -5.15681,-2.99427 -8.06792,-8.31744 -2.9111,-5.40633 -2.9111,-12.55934 z"
         style="font-style:normal;font-variant:normal;font-weight:600;font-stretch:normal;font-size:10.5833px;line-height:1.25;font-family:Poppins;-inkscape-font-specification:'Poppins, Semi-Bold';font-variant-ligatures:normal;font-variant-caps:normal;font-variant-numeric:normal;font-variant-east-asian:normal;fill:#ffffff;fill-opacity:1;stroke:none;stroke-width:0.550165"
         id="path858" />
      <path
         d="m 335.41916,172.96892 q 2.24571,-3.65967 5.82221,-5.73904 3.65968,-2.07936 8.31745,-2.07936 v 12.22664 h -3.07746 q -5.48951,0 -8.31744,2.57841 -2.74476,2.5784 -2.74476,8.98284 v 22.95614 h -11.64442 v -46.07863 h 11.64442 z"
         style="font-style:normal;font-variant:normal;font-weight:600;font-stretch:normal;font-size:10.5833px;line-height:1.25;font-family:Poppins;-inkscape-font-specification:'Poppins, Semi-Bold';font-variant-ligatures:normal;font-variant-caps:normal;font-variant-numeric:normal;font-variant-east-asian:normal;fill:#ffffff;fill-opacity:1;stroke:none;stroke-width:0.550165"
         id="path860" />
      <path
         d="m 363.28254,160.3264 q -3.07746,0 -5.15681,-1.913 -1.99619,-1.9962 -1.99619,-4.9073 0,-2.91111 1.99619,-4.82412 2.07935,-1.99618 5.15681,-1.99618 3.07745,0 5.07364,1.99618 2.07936,1.91301 2.07936,4.82412 0,2.9111 -2.07936,4.9073 -1.99619,1.913 -5.07364,1.913 z m 5.73904,5.48952 v 46.07863 h -11.64442 v -46.07863 z"
         style="font-style:normal;font-variant:normal;font-weight:600;font-stretch:normal;font-size:10.5833px;line-height:1.25;font-family:Poppins;-inkscape-font-specification:'Poppins, Semi-Bold';font-variant-ligatures:normal;font-variant-caps:normal;font-variant-numeric:normal;font-variant-east-asian:normal;fill:#ffffff;fill-opacity:1;stroke:none;stroke-width:0.550165"
         id="path862" />
      <path
         d="m 394.05705,175.38098 v 22.29074 q 0,2.32889 1.08127,3.41015 1.16444,0.9981 3.82603,0.9981 h 5.40633 v 9.81458 h -7.31934 q -14.72188,0 -14.72188,-14.306 v -22.20757 h -5.48951 v -9.56506 h 5.48951 v -11.3949 h 11.72759 v 11.3949 h 10.31363 v 9.56506 z"
         style="font-style:normal;font-variant:normal;font-weight:600;font-stretch:normal;font-size:10.5833px;line-height:1.25;font-family:Poppins;-inkscape-font-specification:'Poppins, Semi-Bold';font-variant-ligatures:normal;font-variant-caps:normal;font-variant-numeric:normal;font-variant-east-asian:normal;fill:#ffffff;fill-opacity:1;stroke:none;stroke-width:0.550165"
         id="path864" />
      <path
         d="m 433.23212,212.64312 q -6.65396,0 -11.97712,-2.91111 -5.32317,-2.99427 -8.40062,-8.40061 -2.99428,-5.40634 -2.99428,-12.47617 0,-7.06982 3.07746,-12.47616 3.16062,-5.40634 8.56695,-8.31745 5.40635,-2.99427 12.0603,-2.99427 6.65396,0 12.06029,2.99427 5.40635,2.91111 8.48379,8.31745 3.16066,5.40634 3.16066,12.47616 0,7.06983 -3.24381,12.47617 -3.16067,5.40634 -8.65016,8.40061 -5.40634,2.91111 -12.14346,2.91111 z m 0,-10.14728 q 3.16062,0 5.90538,-1.49714 2.82793,-1.58032 4.49142,-4.65777 1.66348,-3.07745 1.66348,-7.4857 0,-6.57077 -3.49332,-10.0641 -3.41015,-3.5765 -8.40062,-3.5765 -4.99047,0 -8.40062,3.5765 -3.32697,3.49333 -3.32697,10.0641 0,6.57079 3.2438,10.14729 3.32698,3.49332 8.31745,3.49332 z"
         style="font-style:normal;font-variant:normal;font-weight:600;font-stretch:normal;font-size:10.5833px;line-height:1.25;font-family:Poppins;-inkscape-font-specification:'Poppins, Semi-Bold';font-variant-ligatures:normal;font-variant-caps:normal;font-variant-numeric:normal;font-variant-east-asian:normal;fill:#ffffff;fill-opacity:1;stroke:none;stroke-width:0.550165"
         id="path866" />
      <path
         d="m 471.74171,160.3264 q -3.07743,0 -5.15678,-1.913 -1.99619,-1.9962 -1.99619,-4.9073 0,-2.91111 1.99619,-4.82412 2.07935,-1.99618 5.15678,-1.99618 3.07752,0 5.07371,1.99618 2.07934,1.91301 2.07934,4.82412 0,2.9111 -2.07934,4.9073 -1.99619,1.913 -5.07371,1.913 z m 5.73906,5.48952 v 46.07863 h -11.64441 v -46.07863 z"
         style="font-style:normal;font-variant:normal;font-weight:600;font-stretch:normal;font-size:10.5833px;line-height:1.25;font-family:Poppins;-inkscape-font-specification:'Poppins, Semi-Bold';font-variant-ligatures:normal;font-variant-caps:normal;font-variant-numeric:normal;font-variant-east-asian:normal;fill:#ffffff;fill-opacity:1;stroke:none;stroke-width:0.550165"
         id="path868" />
      <path
         d="m 500.60328,172.96892 q 2.24572,-3.65967 5.8222,-5.73904 3.65971,-2.07936 8.31744,-2.07936 v 12.22664 h -3.07743 q -5.48953,0 -8.31745,2.57841 -2.74476,2.5784 -2.74476,8.98284 v 22.95614 h -11.64441 v -46.07863 h 11.64441 z"
         style="font-style:normal;font-variant:normal;font-weight:600;font-stretch:normal;font-size:10.5833px;line-height:1.25;font-family:Poppins;-inkscape-font-specification:'Poppins, Semi-Bold';font-variant-ligatures:normal;font-variant-caps:normal;font-variant-numeric:normal;font-variant-east-asian:normal;fill:#ffffff;fill-opacity:1;stroke:none;stroke-width:0.550165"
         id="path870" />
      <path
         d="m 565.39608,187.85714 q 0,2.49524 -0.33244,4.49142 h -33.68567 q 0.41574,4.99047 3.49334,7.8184 3.07743,2.82793 7.56887,2.82793 6.48762,0 9.23239,-5.57269 h 12.55935 q -1.99619,6.65395 -7.6521,10.97903 -5.65582,4.24189 -13.89012,4.24189 -6.65392,0 -11.97708,-2.91111 -5.24,-2.99427 -8.23429,-8.40061 -2.91114,-5.40634 -2.91114,-12.47617 0,-7.153 2.91114,-12.55933 2.91114,-5.40635 8.15107,-8.31745 5.24,-2.9111 12.0603,-2.9111 6.57078,0 11.72763,2.82793 5.24001,2.82793 8.06792,8.06792 2.91106,5.15681 2.91106,11.89394 z m -12.06031,-3.32697 q -0.0833,-4.49143 -3.24373,-7.15301 -3.16067,-2.74475 -7.73525,-2.74475 -4.32506,0 -7.31934,2.66158 -2.91115,2.57841 -3.57649,7.23618 z"
         style="font-style:normal;font-variant:normal;font-weight:600;font-stretch:normal;font-size:10.5833px;line-height:1.25;font-family:Poppins;-inkscape-font-specification:'Poppins, Semi-Bold';font-variant-ligatures:normal;font-variant-caps:normal;font-variant-numeric:normal;font-variant-east-asian:normal;fill:#ffffff;fill-opacity:1;stroke:none;stroke-width:0.550165"
         id="path872" />
    </g>
    <path
       style="font-style:normal;font-weight:normal;font-size:10.5833px;line-height:1.25;font-family:sans-serif;fill:#ffffff;fill-opacity:1;fill-rule:evenodd;stroke:none;stroke-width:37.1827;stroke-linecap:round;stroke-linejoin:round;stroke-opacity:0.311275"
       id="path922"
       d="m 10.828859,241.68055 c 16.170697,-5.328 33.682553,-2.84716 50.268574,-1.31471 17.246135,1.89454 34.461498,4.18896 51.800437,5.08618 9.1363,0.47276 11.02197,0.35236 19.85322,0.32209 10.34425,-0.61942 5.39788,-0.17604 14.84517,-1.26064 0,0 12.83596,-9.58097 12.83596,-9.58097 v 0 c -9.6292,1.38706 -4.59173,0.79949 -15.12078,1.68936 -9.09187,0.21932 -10.75666,0.38755 -20.17345,0.05 -17.40766,-0.62385 -34.696994,-2.78362 -51.972528,-4.88948 -16.118788,-1.774 -32.828827,-4.48285 -48.854148,-0.65663 0,0 -13.482455,10.55474 -13.482455,10.55474 z" />
  </g>
  <g
     inkscape:label="dark"
     inkscape:groupmode="layer"
     id="g885"
     style="display:none">
    <g
       aria-label="neo"
       id="g848"
       style="font-style:normal;font-weight:normal;font-size:10.5833px;line-height:1.25;font-family:sans-serif;fill:#000000;fill-opacity:1;stroke:none;stroke-width:0.264583" />
    <path
       style="font-style:normal;font-weight:normal;font-size:10.5833px;line-height:1.25;font-family:sans-serif;fill:#1c1c1c;fill-opacity:0.219269;fill-rule:evenodd;stroke:none;stroke-width:42.3379;stroke-linecap:round;stroke-linejoin:round;stroke-opacity:0.311275"
       id="path851"
       d="m 164.58855,187.02134 c 2.14661,-5.71965 4.17504,-11.74727 6.84299,-16.77069 2.83822,-5.344 4.78354,-7.68875 8.06491,-12.27011 1.68987,-1.9552 6.81373,-7.66276 5.06963,-5.86558 -5.80904,5.98584 -11.77385,11.57224 -17.26936,18.4366 -1.99304,2.48948 4.41645,-3.65862 6.68681,-5.21804 6.07567,-4.17314 10.96151,-6.49907 17.48106,-8.63929 4.00578,-1.315 8.05978,-2.10932 12.08965,-3.164 20.65573,-3.79291 41.4614,-5.64259 62.22887,-4.82551 13.12328,0.51631 18.97211,1.58747 31.96169,3.30783 17.85365,2.91059 35.51283,8.9887 52.7599,17.68297 9.87867,4.97984 12.38484,6.80859 21.85981,12.69835 20.09081,13.73419 40.71623,24.61331 61.59798,33.73585 17.00393,7.07329 34.28585,12.53907 51.79868,12.70829 3.40056,0.0329 6.79852,-0.34236 10.19776,-0.51351 12.75586,-1.44458 25.25305,-6.59249 37.16559,-14.80911 6.63572,-4.57697 9.7204,-7.55022 15.98822,-13.02201 14.05925,-12.71754 27.31299,-27.07181 40.10184,-43.19337 0,0 -25.4862,17.94211 -25.4862,17.94211 v 0 c -6.82015,8.62189 -25.80805,29.88268 5.92245,-4.08793 -6.41917,5.93981 -9.24197,8.86684 -16.03394,13.82205 -11.81542,8.6202 -24.2354,14.35291 -36.96642,16.31247 -3.376,0.26871 -6.74881,0.74537 -10.128,0.80613 -17.43458,0.31345 -34.73095,-4.97503 -51.69418,-11.67756 -9.24598,-4.0448 -11.7809,-4.9979 -20.91387,-9.6104 -13.71796,-6.92806 -27.2036,-15.20822 -40.63057,-23.73588 -6.95687,-4.00184 -15.38457,-8.98623 -22.39358,-12.43842 -17.67548,-8.70583 -35.79608,-14.27226 -54.06542,-16.99289 -5.29375,-0.64364 -10.58298,-1.41876 -15.88121,-1.93089 -25.76814,-2.49078 -51.63212,-2.0376 -77.3721,1.18908 -7.40126,1.31082 -13.81912,1.98481 -21.03937,4.87262 -2.94602,1.17828 -11.3433,5.92296 -14.17984,8.62491 -24.66936,23.49893 -21.12596,19.52292 -34.26599,35.81569 -3.74359,5.59276 -5.07944,7.21045 -8.36571,13.58999 -2.90794,5.64513 -5.25149,12.16532 -7.92804,18.14444 0,0 26.79596,-20.92419 26.79596,-20.92419 z" />
    <g
       id="g859"
       transform="matrix(0.81454775,0,0,0.81454775,-0.27405662,100.78359)"
       style="font-style:normal;font-weight:normal;font-size:10.5833px;line-height:1.25;font-family:sans-serif;fill:#1c1c1c;fill-opacity:1;stroke:none;stroke-width:0.264583">
      <path
         d="m 50.297755,95.660448 q 8.234263,0 13.307909,5.239992 5.073638,5.15681 5.073638,14.47235 v 27.03168 H 57.034881 V 116.9531 q 0,-5.48951 -2.744757,-8.40062 -2.744757,-2.99428 -7.485698,-2.99428 -4.824114,0 -7.652043,2.99428 -2.744758,2.91111 -2.744758,8.40062 v 25.45137 H 24.763205 V 96.32584 h 11.64442 v 5.73904 q 2.328881,-2.994283 5.905383,-4.657771 3.659673,-1.746661 7.984747,-1.746661 z"
         style="font-style:normal;font-variant:normal;font-weight:600;font-stretch:normal;font-size:10.5833px;line-height:1.25;font-family:Poppins;-inkscape-font-specification:'Poppins, Semi-Bold';font-variant-ligatures:normal;font-variant-caps:normal;font-variant-numeric:normal;font-variant-east-asian:normal;fill:#1c1c1c;fill-opacity:1;stroke:none;stroke-width:0.550165"
         id="path853" />
      <path
         d="m 122.57628,118.36707 q 0,2.49523 -0.33268,4.49142 H 88.557962 q 0.4159,4.99046 3.493329,7.81839 3.077454,2.82793 7.568871,2.82793 6.487598,0 9.232358,-5.57269 h 12.55934 q -1.99619,6.65396 -7.65204,10.97903 -5.65587,4.2419 -13.890134,4.2419 -6.653954,0 -11.977116,-2.91111 -5.23999,-2.99428 -8.234271,-8.40062 -2.911102,-5.40633 -2.911102,-12.47616 0,-7.15301 2.911102,-12.55934 2.911101,-5.40634 8.151091,-8.317443 5.23999,-2.911101 12.060296,-2.911101 6.570774,0 11.727594,2.827929 5.23999,2.827925 8.06792,8.067915 2.91111,5.15681 2.91111,11.89395 z m -12.0603,-3.32698 q -0.0832,-4.49142 -3.24381,-7.153 -3.16062,-2.74476 -7.735211,-2.74476 -4.325074,0 -7.319355,2.66159 -2.911101,2.5784 -3.576501,7.23617 z"
         style="font-style:normal;font-variant:normal;font-weight:600;font-stretch:normal;font-size:10.5833px;line-height:1.25;font-family:Poppins;-inkscape-font-specification:'Poppins, Semi-Bold';font-variant-ligatures:normal;font-variant-caps:normal;font-variant-numeric:normal;font-variant-east-asian:normal;fill:#1c1c1c;fill-opacity:1;stroke:none;stroke-width:0.550165"
         id="path855" />
      <path
         d="m 151.52086,143.15305 q -6.65395,0 -11.97711,-2.91111 -5.32316,-2.99428 -8.40062,-8.40062 -2.99428,-5.40633 -2.99428,-12.47616 0,-7.06983 3.07746,-12.47617 3.16062,-5.40633 8.56696,-8.317441 5.40634,-2.994273 12.06029,-2.994273 6.65396,0 12.0603,2.994273 5.40633,2.911111 8.48378,8.317441 3.16064,5.40634 3.16064,12.47617 0,7.06983 -3.24381,12.47616 -3.16063,5.40634 -8.65014,8.40062 -5.40634,2.91111 -12.14347,2.91111 z m 0,-10.14729 q 3.16063,0 5.90539,-1.49713 2.82793,-1.58032 4.49141,-4.65777 1.66349,-3.07746 1.66349,-7.4857 0,-6.57078 -3.49332,-10.06411 -3.41015,-3.5765 -8.40061,-3.5765 -4.99047,0 -8.40063,3.5765 -3.32697,3.49333 -3.32697,10.06411 0,6.57078 3.2438,10.14728 3.32698,3.49332 8.31744,3.49332 z"
         style="font-style:normal;font-variant:normal;font-weight:600;font-stretch:normal;font-size:10.5833px;line-height:1.25;font-family:Poppins;-inkscape-font-specification:'Poppins, Semi-Bold';font-variant-ligatures:normal;font-variant-caps:normal;font-variant-numeric:normal;font-variant-east-asian:normal;fill:#1c1c1c;fill-opacity:1;stroke:none;stroke-width:0.550165"
         id="path857" />
    </g>
    <g
       id="g881"
       style="font-style:normal;font-weight:normal;font-size:10.5833px;line-height:1.25;font-family:sans-serif;fill:#1c1c1c;fill-opacity:1;stroke:none;stroke-width:0.264583"
       transform="matrix(1.0819978,0,0,1.0819978,-40.217107,-11.88085)">
      <path
         d="m 195.76954,163.23751 v 14.55552 h 19.54599 v 9.23237 h -19.54599 v 15.38727 h 22.04122 v 9.48188 h -33.68564 v -58.13892 h 33.68564 v 9.48188 z"
         style="font-style:normal;font-variant:normal;font-weight:600;font-stretch:normal;font-size:10.5833px;line-height:1.25;font-family:Poppins;-inkscape-font-specification:'Poppins, Semi-Bold';font-variant-ligatures:normal;font-variant-caps:normal;font-variant-numeric:normal;font-variant-east-asian:normal;fill:#1c1c1c;fill-opacity:1;stroke:none;stroke-width:0.550165"
         id="path861" />
      <path
         d="m 246.00686,212.64312 q -5.65585,0 -10.14727,-1.99618 -4.49142,-2.07937 -7.153,-5.57269 -2.57841,-3.49333 -2.82793,-7.73522 h 11.72759 q 0.33267,2.66158 2.5784,4.40824 2.32889,1.74666 5.73904,1.74666 3.32698,0 5.15682,-1.33079 1.913,-1.33079 1.913,-3.41015 0,-2.24571 -2.32888,-3.32697 -2.24571,-1.16445 -7.23617,-2.49524 -5.15682,-1.24762 -8.4838,-2.5784 -3.24379,-1.3308 -5.65585,-4.07555 -2.32889,-2.74476 -2.32889,-7.40253 0,-3.82602 2.16253,-6.98665 2.24572,-3.16063 6.32126,-4.99047 4.15872,-1.82983 9.73141,-1.82983 8.23427,0 13.14156,4.15872 4.90729,4.07554 5.40634,11.0622 h -11.14537 q -0.24953,-2.74476 -2.32888,-4.32507 -1.9962,-1.66349 -5.40635,-1.66349 -3.16062,0 -4.90729,1.16444 -1.66349,1.16444 -1.66349,3.24381 0,2.32888 2.32889,3.5765 2.32888,1.16444 7.23617,2.41205 4.99047,1.24762 8.23428,2.57841 3.24379,1.33079 5.57268,4.15873 2.41205,2.74474 2.49523,7.31934 0,3.99237 -2.2457,7.15301 -2.16254,3.16062 -6.32126,4.99046 -4.07555,1.74666 -9.56507,1.74666 z"
         style="font-style:normal;font-variant:normal;font-weight:600;font-stretch:normal;font-size:10.5833px;line-height:1.25;font-family:Poppins;-inkscape-font-specification:'Poppins, Semi-Bold';font-variant-ligatures:normal;font-variant-caps:normal;font-variant-numeric:normal;font-variant-east-asian:normal;fill:#1c1c1c;fill-opacity:1;stroke:none;stroke-width:0.550165"
         id="path863" />
      <path
         d="m 270.70951,188.85523 q 0,-7.153 2.9111,-12.47616 2.91111,-5.40634 8.06792,-8.31745 5.15682,-2.99427 11.81078,-2.99427 8.56696,0 14.13965,4.32507 5.65586,4.24189 7.56887,11.97711 h -12.55934 q -0.99809,-2.99428 -3.41015,-4.65777 -2.32889,-1.74666 -5.82221,-1.74666 -4.99047,0 -7.90157,3.65968 -2.91111,3.5765 -2.91111,10.23045 0,6.57079 2.91111,10.23046 2.9111,3.5765 7.90157,3.5765 7.06983,0 9.23236,-6.32126 h 12.55934 q -1.91301,7.4857 -7.56887,11.89395 -5.65587,4.40824 -14.13965,4.40824 -6.65396,0 -11.81078,-2.91111 -5.15681,-2.99427 -8.06792,-8.31744 -2.9111,-5.40633 -2.9111,-12.55934 z"
         style="font-style:normal;font-variant:normal;font-weight:600;font-stretch:normal;font-size:10.5833px;line-height:1.25;font-family:Poppins;-inkscape-font-specification:'Poppins, Semi-Bold';font-variant-ligatures:normal;font-variant-caps:normal;font-variant-numeric:normal;font-variant-east-asian:normal;fill:#1c1c1c;fill-opacity:1;stroke:none;stroke-width:0.550165"
         id="path865" />
      <path
         d="m 335.41916,172.96892 q 2.24571,-3.65967 5.82221,-5.73904 3.65968,-2.07936 8.31745,-2.07936 v 12.22664 h -3.07746 q -5.48951,0 -8.31744,2.57841 -2.74476,2.5784 -2.74476,8.98284 v 22.95614 h -11.64442 v -46.07863 h 11.64442 z"
         style="font-style:normal;font-variant:normal;font-weight:600;font-stretch:normal;font-size:10.5833px;line-height:1.25;font-family:Poppins;-inkscape-font-specification:'Poppins, Semi-Bold';font-variant-ligatures:normal;font-variant-caps:normal;font-variant-numeric:normal;font-variant-east-asian:normal;fill:#1c1c1c;fill-opacity:1;stroke:none;stroke-width:0.550165"
         id="path867" />
      <path
         d="m 363.28254,160.3264 q -3.07746,0 -5.15681,-1.913 -1.99619,-1.9962 -1.99619,-4.9073 0,-2.91111 1.99619,-4.82412 2.07935,-1.99618 5.15681,-1.99618 3.07745,0 5.07364,1.99618 2.07936,1.91301 2.07936,4.82412 0,2.9111 -2.07936,4.9073 -1.99619,1.913 -5.07364,1.913 z m 5.73904,5.48952 v 46.07863 h -11.64442 v -46.07863 z"
         style="font-style:normal;font-variant:normal;font-weight:600;font-stretch:normal;font-size:10.5833px;line-height:1.25;font-family:Poppins;-inkscape-font-specification:'Poppins, Semi-Bold';font-variant-ligatures:normal;font-variant-caps:normal;font-variant-numeric:normal;font-variant-east-asian:normal;fill:#1c1c1c;fill-opacity:1;stroke:none;stroke-width:0.550165"
         id="path869" />
      <path
         d="m 394.05705,175.38098 v 22.29074 q 0,2.32889 1.08127,3.41015 1.16444,0.9981 3.82603,0.9981 h 5.40633 v 9.81458 h -7.31934 q -14.72188,0 -14.72188,-14.306 v -22.20757 h -5.48951 v -9.56506 h 5.48951 v -11.3949 h 11.72759 v 11.3949 h 10.31363 v 9.56506 z"
         style="font-style:normal;font-variant:normal;font-weight:600;font-stretch:normal;font-size:10.5833px;line-height:1.25;font-family:Poppins;-inkscape-font-specification:'Poppins, Semi-Bold';font-variant-ligatures:normal;font-variant-caps:normal;font-variant-numeric:normal;font-variant-east-asian:normal;fill:#1c1c1c;fill-opacity:1;stroke:none;stroke-width:0.550165"
         id="path871" />
      <path
         d="m 433.23212,212.64312 q -6.65396,0 -11.97712,-2.91111 -5.32317,-2.99427 -8.40062,-8.40061 -2.99428,-5.40634 -2.99428,-12.47617 0,-7.06982 3.07746,-12.47616 3.16062,-5.40634 8.56695,-8.31745 5.40635,-2.99427 12.0603,-2.99427 6.65396,0 12.06029,2.99427 5.40635,2.91111 8.48379,8.31745 3.16066,5.40634 3.16066,12.47616 0,7.06983 -3.24381,12.47617 -3.16067,5.40634 -8.65016,8.40061 -5.40634,2.91111 -12.14346,2.91111 z m 0,-10.14728 q 3.16062,0 5.90538,-1.49714 2.82793,-1.58032 4.49142,-4.65777 1.66348,-3.07745 1.66348,-7.4857 0,-6.57077 -3.49332,-10.0641 -3.41015,-3.5765 -8.40062,-3.5765 -4.99047,0 -8.40062,3.5765 -3.32697,3.49333 -3.32697,10.0641 0,6.57079 3.2438,10.14729 3.32698,3.49332 8.31745,3.49332 z"
         style="font-style:normal;font-variant:normal;font-weight:600;font-stretch:normal;font-size:10.5833px;line-height:1.25;font-family:Poppins;-inkscape-font-specification:'Poppins, Semi-Bold';font-variant-ligatures:normal;font-variant-caps:normal;font-variant-numeric:normal;font-variant-east-asian:normal;fill:#1c1c1c;fill-opacity:1;stroke:none;stroke-width:0.550165"
         id="path873" />
      <path
         d="m 471.74171,160.3264 q -3.07743,0 -5.15678,-1.913 -1.99619,-1.9962 -1.99619,-4.9073 0,-2.91111 1.99619,-4.82412 2.07935,-1.99618 5.15678,-1.99618 3.07752,0 5.07371,1.99618 2.07934,1.91301 2.07934,4.82412 0,2.9111 -2.07934,4.9073 -1.99619,1.913 -5.07371,1.913 z m 5.73906,5.48952 v 46.07863 h -11.64441 v -46.07863 z"
         style="font-style:normal;font-variant:normal;font-weight:600;font-stretch:normal;font-size:10.5833px;line-height:1.25;font-family:Poppins;-inkscape-font-specification:'Poppins, Semi-Bold';font-variant-ligatures:normal;font-variant-caps:normal;font-variant-numeric:normal;font-variant-east-asian:normal;fill:#1c1c1c;fill-opacity:1;stroke:none;stroke-width:0.550165"
         id="path875" />
      <path
         d="m 500.60328,172.96892 q 2.24572,-3.65967 5.8222,-5.73904 3.65971,-2.07936 8.31744,-2.07936 v 12.22664 h -3.07743 q -5.48953,0 -8.31745,2.57841 -2.74476,2.5784 -2.74476,8.98284 v 22.95614 h -11.64441 v -46.07863 h 11.64441 z"
         style="font-style:normal;font-variant:normal;font-weight:600;font-stretch:normal;font-size:10.5833px;line-height:1.25;font-family:Poppins;-inkscape-font-specification:'Poppins, Semi-Bold';font-variant-ligatures:normal;font-variant-caps:normal;font-variant-numeric:normal;font-variant-east-asian:normal;fill:#1c1c1c;fill-opacity:1;stroke:none;stroke-width:0.550165"
         id="path877" />
      <path
         d="m 565.39608,187.85714 q 0,2.49524 -0.33244,4.49142 h -33.68567 q 0.41574,4.99047 3.49334,7.8184 3.07743,2.82793 7.56887,2.82793 6.48762,0 9.23239,-5.57269 h 12.55935 q -1.99619,6.65395 -7.6521,10.97903 -5.65582,4.24189 -13.89012,4.24189 -6.65392,0 -11.97708,-2.91111 -5.24,-2.99427 -8.23429,-8.40061 -2.91114,-5.40634 -2.91114,-12.47617 0,-7.153 2.91114,-12.55933 2.91114,-5.40635 8.15107,-8.31745 5.24,-2.9111 12.0603,-2.9111 6.57078,0 11.72763,2.82793 5.24001,2.82793 8.06792,8.06792 2.91106,5.15681 2.91106,11.89394 z m -12.06031,-3.32697 q -0.0833,-4.49143 -3.24373,-7.15301 -3.16067,-2.74475 -7.73525,-2.74475 -4.32506,0 -7.31934,2.66158 -2.91115,2.57841 -3.57649,7.23618 z"
         style="font-style:normal;font-variant:normal;font-weight:600;font-stretch:normal;font-size:10.5833px;line-height:1.25;font-family:Poppins;-inkscape-font-specification:'Poppins, Semi-Bold';font-variant-ligatures:normal;font-variant-caps:normal;font-variant-numeric:normal;font-variant-east-asian:normal;fill:#1c1c1c;fill-opacity:1;stroke:none;stroke-width:0.550165"
         id="path879" />
    </g>
    <path
       style="font-style:normal;font-weight:normal;font-size:10.5833px;line-height:1.25;font-family:sans-serif;fill:#1c1c1c;fill-opacity:1;fill-rule:evenodd;stroke:none;stroke-width:37.1827;stroke-linecap:round;stroke-linejoin:round;stroke-opacity:0.311275"
       id="path883"
       d="m 10.828859,241.68055 c 16.170697,-5.328 33.682553,-2.84716 50.268574,-1.31471 17.246135,1.89454 34.461498,4.18896 51.800437,5.08618 9.1363,0.47276 11.02197,0.35236 19.85322,0.32209 10.34425,-0.61942 5.39788,-0.17604 14.84517,-1.26064 0,0 12.83596,-9.58097 12.83596,-9.58097 v 0 c -9.6292,1.38706 -4.59173,0.79949 -15.12078,1.68936 -9.09187,0.21932 -10.75666,0.38755 -20.17345,0.05 -17.40766,-0.62385 -34.696994,-2.78362 -51.972528,-4.88948 -16.118788,-1.774 -32.828827,-4.48285 -48.854148,-0.65663 0,0 -13.482455,10.55474 -13.482455,10.55474 z" />
  </g>
  <g
     inkscape:label="color white"
     inkscape:groupmode="layer"
     id="g923"
     style="display:none">
    <g
       aria-label="neo"
       id="g887"
       style="font-style:normal;font-weight:normal;font-size:10.5833px;line-height:1.25;font-family:sans-serif;fill:#000000;fill-opacity:1;stroke:none;stroke-width:0.264583" />
    <path
       style="font-style:normal;font-weight:normal;font-size:10.5833px;line-height:1.25;font-family:sans-serif;fill:#ffa500;fill-opacity:1;fill-rule:evenodd;stroke:none;stroke-width:42.3379;stroke-linecap:round;stroke-linejoin:round;stroke-opacity:0.311275"
       id="path889"
       d="m 164.58855,187.02134 c 2.14661,-5.71965 4.17504,-11.74727 6.84299,-16.77069 2.83822,-5.344 4.78354,-7.68875 8.06491,-12.27011 1.68987,-1.9552 6.81373,-7.66276 5.06963,-5.86558 -5.80904,5.98584 -11.77385,11.57224 -17.26936,18.4366 -1.99304,2.48948 4.41645,-3.65862 6.68681,-5.21804 6.07567,-4.17314 10.96151,-6.49907 17.48106,-8.63929 4.00578,-1.315 8.05978,-2.10932 12.08965,-3.164 20.65573,-3.79291 41.4614,-5.64259 62.22887,-4.82551 13.12328,0.51631 18.97211,1.58747 31.96169,3.30783 17.85365,2.91059 35.51283,8.9887 52.7599,17.68297 9.87867,4.97984 12.38484,6.80859 21.85981,12.69835 20.09081,13.73419 40.71623,24.61331 61.59798,33.73585 17.00393,7.07329 34.28585,12.53907 51.79868,12.70829 3.40056,0.0329 6.79852,-0.34236 10.19776,-0.51351 12.75586,-1.44458 25.25305,-6.59249 37.16559,-14.80911 6.63572,-4.57697 9.7204,-7.55022 15.98822,-13.02201 14.05925,-12.71754 27.31299,-27.07181 40.10184,-43.19337 0,0 -25.4862,17.94211 -25.4862,17.94211 v 0 c -6.82015,8.62189 -25.80805,29.88268 5.92245,-4.08793 -6.41917,5.93981 -9.24197,8.86684 -16.03394,13.82205 -11.81542,8.6202 -24.2354,14.35291 -36.96642,16.31247 -3.376,0.26871 -6.74881,0.74537 -10.128,0.80613 -17.43458,0.31345 -34.73095,-4.97503 -51.69418,-11.67756 -9.24598,-4.0448 -11.7809,-4.9979 -20.91387,-9.6104 -13.71796,-6.92806 -27.2036,-15.20822 -40.63057,-23.73588 -6.95687,-4.00184 -15.38457,-8.98623 -22.39358,-12.43842 -17.67548,-8.70583 -35.79608,-14.27226 -54.06542,-16.99289 -5.29375,-0.64364 -10.58298,-1.41876 -15.88121,-1.93089 -25.76814,-2.49078 -51.63212,-2.0376 -77.3721,1.18908 -7.40126,1.31082 -13.81912,1.98481 -21.03937,4.87262 -2.94602,1.17828 -11.3433,5.92296 -14.17984,8.62491 -24.66936,23.49893 -21.12596,19.52292 -34.26599,35.81569 -3.74359,5.59276 -5.07944,7.21045 -8.36571,13.58999 -2.90794,5.64513 -5.25149,12.16532 -7.92804,18.14444 0,0 26.79596,-20.92419 26.79596,-20.92419 z" />
    <g
       id="g897"
       transform="matrix(0.81454775,0,0,0.81454775,-0.27405662,100.78359)"
       style="font-style:normal;font-weight:normal;font-size:10.5833px;line-height:1.25;font-family:sans-serif;fill:#48aeff;fill-opacity:1;stroke:none;stroke-width:0.264583">
      <path
         d="m 50.297755,95.660448 q 8.234263,0 13.307909,5.239992 5.073638,5.15681 5.073638,14.47235 v 27.03168 H 57.034881 V 116.9531 q 0,-5.48951 -2.744757,-8.40062 -2.744757,-2.99428 -7.485698,-2.99428 -4.824114,0 -7.652043,2.99428 -2.744758,2.91111 -2.744758,8.40062 v 25.45137 H 24.763205 V 96.32584 h 11.64442 v 5.73904 q 2.328881,-2.994283 5.905383,-4.657771 3.659673,-1.746661 7.984747,-1.746661 z"
         style="font-style:normal;font-variant:normal;font-weight:600;font-stretch:normal;font-size:10.5833px;line-height:1.25;font-family:Poppins;-inkscape-font-specification:'Poppins, Semi-Bold';font-variant-ligatures:normal;font-variant-caps:normal;font-variant-numeric:normal;font-variant-east-asian:normal;fill:#48aeff;fill-opacity:1;stroke:none;stroke-width:0.550165"
         id="path891" />
      <path
         d="m 122.57628,118.36707 q 0,2.49523 -0.33268,4.49142 H 88.557962 q 0.4159,4.99046 3.493329,7.81839 3.077454,2.82793 7.568871,2.82793 6.487598,0 9.232358,-5.57269 h 12.55934 q -1.99619,6.65396 -7.65204,10.97903 -5.65587,4.2419 -13.890134,4.2419 -6.653954,0 -11.977116,-2.91111 -5.23999,-2.99428 -8.234271,-8.40062 -2.911102,-5.40633 -2.911102,-12.47616 0,-7.15301 2.911102,-12.55934 2.911101,-5.40634 8.151091,-8.317443 5.23999,-2.911101 12.060296,-2.911101 6.570774,0 11.727594,2.827929 5.23999,2.827925 8.06792,8.067915 2.91111,5.15681 2.91111,11.89395 z m -12.0603,-3.32698 q -0.0832,-4.49142 -3.24381,-7.153 -3.16062,-2.74476 -7.735211,-2.74476 -4.325074,0 -7.319355,2.66159 -2.911101,2.5784 -3.576501,7.23617 z"
         style="font-style:normal;font-variant:normal;font-weight:600;font-stretch:normal;font-size:10.5833px;line-height:1.25;font-family:Poppins;-inkscape-font-specification:'Poppins, Semi-Bold';font-variant-ligatures:normal;font-variant-caps:normal;font-variant-numeric:normal;font-variant-east-asian:normal;fill:#48aeff;fill-opacity:1;stroke:none;stroke-width:0.550165"
         id="path893" />
      <path
         d="m 151.52086,143.15305 q -6.65395,0 -11.97711,-2.91111 -5.32316,-2.99428 -8.40062,-8.40062 -2.99428,-5.40633 -2.99428,-12.47616 0,-7.06983 3.07746,-12.47617 3.16062,-5.40633 8.56696,-8.317441 5.40634,-2.994273 12.06029,-2.994273 6.65396,0 12.0603,2.994273 5.40633,2.911111 8.48378,8.317441 3.16064,5.40634 3.16064,12.47617 0,7.06983 -3.24381,12.47616 -3.16063,5.40634 -8.65014,8.40062 -5.40634,2.91111 -12.14347,2.91111 z m 0,-10.14729 q 3.16063,0 5.90539,-1.49713 2.82793,-1.58032 4.49141,-4.65777 1.66349,-3.07746 1.66349,-7.4857 0,-6.57078 -3.49332,-10.06411 -3.41015,-3.5765 -8.40061,-3.5765 -4.99047,0 -8.40063,3.5765 -3.32697,3.49333 -3.32697,10.06411 0,6.57078 3.2438,10.14728 3.32698,3.49332 8.31744,3.49332 z"
         style="font-style:normal;font-variant:normal;font-weight:600;font-stretch:normal;font-size:10.5833px;line-height:1.25;font-family:Poppins;-inkscape-font-specification:'Poppins, Semi-Bold';font-variant-ligatures:normal;font-variant-caps:normal;font-variant-numeric:normal;font-variant-east-asian:normal;fill:#48aeff;fill-opacity:1;stroke:none;stroke-width:0.550165"
         id="path895" />
    </g>
    <g
       id="g919"
       style="font-style:normal;font-weight:normal;font-size:10.5833px;line-height:1.25;font-family:sans-serif;fill:#000000;fill-opacity:1;stroke:none;stroke-width:0.264583"
       transform="matrix(1.0819978,0,0,1.0819978,-40.217107,-11.88085)">
      <path
         d="m 195.76954,163.23751 v 14.55552 h 19.54599 v 9.23237 h -19.54599 v 15.38727 h 22.04122 v 9.48188 h -33.68564 v -58.13892 h 33.68564 v 9.48188 z"
         style="font-style:normal;font-variant:normal;font-weight:600;font-stretch:normal;font-size:10.5833px;line-height:1.25;font-family:Poppins;-inkscape-font-specification:'Poppins, Semi-Bold';font-variant-ligatures:normal;font-variant-caps:normal;font-variant-numeric:normal;font-variant-east-asian:normal;fill:#ffffff;fill-opacity:1;stroke:none;stroke-width:0.550165"
         id="path899" />
      <path
         d="m 246.00686,212.64312 q -5.65585,0 -10.14727,-1.99618 -4.49142,-2.07937 -7.153,-5.57269 -2.57841,-3.49333 -2.82793,-7.73522 h 11.72759 q 0.33267,2.66158 2.5784,4.40824 2.32889,1.74666 5.73904,1.74666 3.32698,0 5.15682,-1.33079 1.913,-1.33079 1.913,-3.41015 0,-2.24571 -2.32888,-3.32697 -2.24571,-1.16445 -7.23617,-2.49524 -5.15682,-1.24762 -8.4838,-2.5784 -3.24379,-1.3308 -5.65585,-4.07555 -2.32889,-2.74476 -2.32889,-7.40253 0,-3.82602 2.16253,-6.98665 2.24572,-3.16063 6.32126,-4.99047 4.15872,-1.82983 9.73141,-1.82983 8.23427,0 13.14156,4.15872 4.90729,4.07554 5.40634,11.0622 h -11.14537 q -0.24953,-2.74476 -2.32888,-4.32507 -1.9962,-1.66349 -5.40635,-1.66349 -3.16062,0 -4.90729,1.16444 -1.66349,1.16444 -1.66349,3.24381 0,2.32888 2.32889,3.5765 2.32888,1.16444 7.23617,2.41205 4.99047,1.24762 8.23428,2.57841 3.24379,1.33079 5.57268,4.15873 2.41205,2.74474 2.49523,7.31934 0,3.99237 -2.2457,7.15301 -2.16254,3.16062 -6.32126,4.99046 -4.07555,1.74666 -9.56507,1.74666 z"
         style="font-style:normal;font-variant:normal;font-weight:600;font-stretch:normal;font-size:10.5833px;line-height:1.25;font-family:Poppins;-inkscape-font-specification:'Poppins, Semi-Bold';font-variant-ligatures:normal;font-variant-caps:normal;font-variant-numeric:normal;font-variant-east-asian:normal;fill:#ffffff;fill-opacity:1;stroke:none;stroke-width:0.550165"
         id="path901" />
      <path
         d="m 270.70951,188.85523 q 0,-7.153 2.9111,-12.47616 2.91111,-5.40634 8.06792,-8.31745 5.15682,-2.99427 11.81078,-2.99427 8.56696,0 14.13965,4.32507 5.65586,4.24189 7.56887,11.97711 h -12.55934 q -0.99809,-2.99428 -3.41015,-4.65777 -2.32889,-1.74666 -5.82221,-1.74666 -4.99047,0 -7.90157,3.65968 -2.91111,3.5765 -2.91111,10.23045 0,6.57079 2.91111,10.23046 2.9111,3.5765 7.90157,3.5765 7.06983,0 9.23236,-6.32126 h 12.55934 q -1.91301,7.4857 -7.56887,11.89395 -5.65587,4.40824 -14.13965,4.40824 -6.65396,0 -11.81078,-2.91111 -5.15681,-2.99427 -8.06792,-8.31744 -2.9111,-5.40633 -2.9111,-12.55934 z"
         style="font-style:normal;font-variant:normal;font-weight:600;font-stretch:normal;font-size:10.5833px;line-height:1.25;font-family:Poppins;-inkscape-font-specification:'Poppins, Semi-Bold';font-variant-ligatures:normal;font-variant-caps:normal;font-variant-numeric:normal;font-variant-east-asian:normal;fill:#ffffff;fill-opacity:1;stroke:none;stroke-width:0.550165"
         id="path903" />
      <path
         d="m 335.41916,172.96892 q 2.24571,-3.65967 5.82221,-5.73904 3.65968,-2.07936 8.31745,-2.07936 v 12.22664 h -3.07746 q -5.48951,0 -8.31744,2.57841 -2.74476,2.5784 -2.74476,8.98284 v 22.95614 h -11.64442 v -46.07863 h 11.64442 z"
         style="font-style:normal;font-variant:normal;font-weight:600;font-stretch:normal;font-size:10.5833px;line-height:1.25;font-family:Poppins;-inkscape-font-specification:'Poppins, Semi-Bold';font-variant-ligatures:normal;font-variant-caps:normal;font-variant-numeric:normal;font-variant-east-asian:normal;fill:#ffffff;fill-opacity:1;stroke:none;stroke-width:0.550165"
         id="path905" />
      <path
         d="m 363.28254,160.3264 q -3.07746,0 -5.15681,-1.913 -1.99619,-1.9962 -1.99619,-4.9073 0,-2.91111 1.99619,-4.82412 2.07935,-1.99618 5.15681,-1.99618 3.07745,0 5.07364,1.99618 2.07936,1.91301 2.07936,4.82412 0,2.9111 -2.07936,4.9073 -1.99619,1.913 -5.07364,1.913 z m 5.73904,5.48952 v 46.07863 h -11.64442 v -46.07863 z"
         style="font-style:normal;font-variant:normal;font-weight:600;font-stretch:normal;font-size:10.5833px;line-height:1.25;font-family:Poppins;-inkscape-font-specification:'Poppins, Semi-Bold';font-variant-ligatures:normal;font-variant-caps:normal;font-variant-numeric:normal;font-variant-east-asian:normal;fill:#ffffff;fill-opacity:1;stroke:none;stroke-width:0.550165"
         id="path907" />
      <path
         d="m 394.05705,175.38098 v 22.29074 q 0,2.32889 1.08127,3.41015 1.16444,0.9981 3.82603,0.9981 h 5.40633 v 9.81458 h -7.31934 q -14.72188,0 -14.72188,-14.306 v -22.20757 h -5.48951 v -9.56506 h 5.48951 v -11.3949 h 11.72759 v 11.3949 h 10.31363 v 9.56506 z"
         style="font-style:normal;font-variant:normal;font-weight:600;font-stretch:normal;font-size:10.5833px;line-height:1.25;font-family:Poppins;-inkscape-font-specification:'Poppins, Semi-Bold';font-variant-ligatures:normal;font-variant-caps:normal;font-variant-numeric:normal;font-variant-east-asian:normal;fill:#ffffff;fill-opacity:1;stroke:none;stroke-width:0.550165"
         id="path909" />
      <path
         d="m 433.23212,212.64312 q -6.65396,0 -11.97712,-2.91111 -5.32317,-2.99427 -8.40062,-8.40061 -2.99428,-5.40634 -2.99428,-12.47617 0,-7.06982 3.07746,-12.47616 3.16062,-5.40634 8.56695,-8.31745 5.40635,-2.99427 12.0603,-2.99427 6.65396,0 12.06029,2.99427 5.40635,2.91111 8.48379,8.31745 3.16066,5.40634 3.16066,12.47616 0,7.06983 -3.24381,12.47617 -3.16067,5.40634 -8.65016,8.40061 -5.40634,2.91111 -12.14346,2.91111 z m 0,-10.14728 q 3.16062,0 5.90538,-1.49714 2.82793,-1.58032 4.49142,-4.65777 1.66348,-3.07745 1.66348,-7.4857 0,-6.57077 -3.49332,-10.0641 -3.41015,-3.5765 -8.40062,-3.5765 -4.99047,0 -8.40062,3.5765 -3.32697,3.49333 -3.32697,10.0641 0,6.57079 3.2438,10.14729 3.32698,3.49332 8.31745,3.49332 z"
         style="font-style:normal;font-variant:normal;font-weight:600;font-stretch:normal;font-size:10.5833px;line-height:1.25;font-family:Poppins;-inkscape-font-specification:'Poppins, Semi-Bold';font-variant-ligatures:normal;font-variant-caps:normal;font-variant-numeric:normal;font-variant-east-asian:normal;fill:#ffffff;fill-opacity:1;stroke:none;stroke-width:0.550165"
         id="path911" />
      <path
         d="m 471.74171,160.3264 q -3.07743,0 -5.15678,-1.913 -1.99619,-1.9962 -1.99619,-4.9073 0,-2.91111 1.99619,-4.82412 2.07935,-1.99618 5.15678,-1.99618 3.07752,0 5.07371,1.99618 2.07934,1.91301 2.07934,4.82412 0,2.9111 -2.07934,4.9073 -1.99619,1.913 -5.07371,1.913 z m 5.73906,5.48952 v 46.07863 h -11.64441 v -46.07863 z"
         style="font-style:normal;font-variant:normal;font-weight:600;font-stretch:normal;font-size:10.5833px;line-height:1.25;font-family:Poppins;-inkscape-font-specification:'Poppins, Semi-Bold';font-variant-ligatures:normal;font-variant-caps:normal;font-variant-numeric:normal;font-variant-east-asian:normal;fill:#ffffff;fill-opacity:1;stroke:none;stroke-width:0.550165"
         id="path913" />
      <path
         d="m 500.60328,172.96892 q 2.24572,-3.65967 5.8222,-5.73904 3.65971,-2.07936 8.31744,-2.07936 v 12.22664 h -3.07743 q -5.48953,0 -8.31745,2.57841 -2.74476,2.5784 -2.74476,8.98284 v 22.95614 h -11.64441 v -46.07863 h 11.64441 z"
         style="font-style:normal;font-variant:normal;font-weight:600;font-stretch:normal;font-size:10.5833px;line-height:1.25;font-family:Poppins;-inkscape-font-specification:'Poppins, Semi-Bold';font-variant-ligatures:normal;font-variant-caps:normal;font-variant-numeric:normal;font-variant-east-asian:normal;fill:#ffffff;fill-opacity:1;stroke:none;stroke-width:0.550165"
         id="path915" />
      <path
         d="m 565.39608,187.85714 q 0,2.49524 -0.33244,4.49142 h -33.68567 q 0.41574,4.99047 3.49334,7.8184 3.07743,2.82793 7.56887,2.82793 6.48762,0 9.23239,-5.57269 h 12.55935 q -1.99619,6.65395 -7.6521,10.97903 -5.65582,4.24189 -13.89012,4.24189 -6.65392,0 -11.97708,-2.91111 -5.24,-2.99427 -8.23429,-8.40061 -2.91114,-5.40634 -2.91114,-12.47617 0,-7.153 2.91114,-12.55933 2.91114,-5.40635 8.15107,-8.31745 5.24,-2.9111 12.0603,-2.9111 6.57078,0 11.72763,2.82793 5.24001,2.82793 8.06792,8.06792 2.91106,5.15681 2.91106,11.89394 z m -12.06031,-3.32697 q -0.0833,-4.49143 -3.24373,-7.15301 -3.16067,-2.74475 -7.73525,-2.74475 -4.32506,0 -7.31934,2.66158 -2.91115,2.57841 -3.57649,7.23618 z"
         style="font-style:normal;font-variant:normal;font-weight:600;font-stretch:normal;font-size:10.5833px;line-height:1.25;font-family:Poppins;-inkscape-font-specification:'Poppins, Semi-Bold';font-variant-ligatures:normal;font-variant-caps:normal;font-variant-numeric:normal;font-variant-east-asian:normal;fill:#ffffff;fill-opacity:1;stroke:none;stroke-width:0.550165"
         id="path917" />
    </g>
    <path
       style="font-style:normal;font-weight:normal;font-size:10.5833px;line-height:1.25;font-family:sans-serif;fill:#ffffff;fill-opacity:1;fill-rule:evenodd;stroke:none;stroke-width:37.1827;stroke-linecap:round;stroke-linejoin:round;stroke-opacity:0.311275"
       id="path921"
       d="m 10.828859,241.68055 c 16.170697,-5.328 33.682553,-2.84716 50.268574,-1.31471 17.246135,1.89454 34.461498,4.18896 51.800437,5.08618 9.1363,0.47276 11.02197,0.35236 19.85322,0.32209 10.34425,-0.61942 5.39788,-0.17604 14.84517,-1.26064 0,0 12.83596,-9.58097 12.83596,-9.58097 v 0 c -9.6292,1.38706 -4.59173,0.79949 -15.12078,1.68936 -9.09187,0.21932 -10.75666,0.38755 -20.17345,0.05 -17.40766,-0.62385 -34.696994,-2.78362 -51.972528,-4.88948 -16.118788,-1.774 -32.828827,-4.48285 -48.854148,-0.65663 0,0 -13.482455,10.55474 -13.482455,10.55474 z" />
  </g>
  <g
     inkscape:label="color dark"
     inkscape:groupmode="layer"
     id="g961"
     style="display:inline">
    <g
       aria-label="neo"
       id="g925"
       style="font-style:normal;font-weight:normal;font-size:10.5833px;line-height:1.25;font-family:sans-serif;fill:#000000;fill-opacity:1;stroke:none;stroke-width:0.264583" />
    <path
       style="font-style:normal;font-weight:normal;font-size:10.5833px;line-height:1.25;font-family:sans-serif;fill:#ffa500;fill-opacity:1;fill-rule:evenodd;stroke:none;stroke-width:42.3379;stroke-linecap:round;stroke-linejoin:round;stroke-opacity:0.311275"
       id="path927"
       d="m 164.58855,187.02134 c 2.14661,-5.71965 4.17504,-11.74727 6.84299,-16.77069 2.83822,-5.344 4.78354,-7.68875 8.06491,-12.27011 1.68987,-1.9552 6.81373,-7.66276 5.06963,-5.86558 -5.80904,5.98584 -11.77385,11.57224 -17.26936,18.4366 -1.99304,2.48948 4.41645,-3.65862 6.68681,-5.21804 6.07567,-4.17314 10.96151,-6.49907 17.48106,-8.63929 4.00578,-1.315 8.05978,-2.10932 12.08965,-3.164 20.65573,-3.79291 41.4614,-5.64259 62.22887,-4.82551 13.12328,0.51631 18.97211,1.58747 31.96169,3.30783 17.85365,2.91059 35.51283,8.9887 52.7599,17.68297 9.87867,4.97984 12.38484,6.80859 21.85981,12.69835 20.09081,13.73419 40.71623,24.61331 61.59798,33.73585 17.00393,7.07329 34.28585,12.53907 51.79868,12.70829 3.40056,0.0329 6.79852,-0.34236 10.19776,-0.51351 12.75586,-1.44458 25.25305,-6.59249 37.16559,-14.80911 6.63572,-4.57697 9.7204,-7.55022 15.98822,-13.02201 14.05925,-12.71754 27.31299,-27.07181 40.10184,-43.19337 0,0 -25.4862,17.94211 -25.4862,17.94211 v 0 c -6.82015,8.62189 -25.80805,29.88268 5.92245,-4.08793 -6.41917,5.93981 -9.24197,8.86684 -16.03394,13.82205 -11.81542,8.6202 -24.2354,14.35291 -36.96642,16.31247 -3.376,0.26871 -6.74881,0.74537 -10.128,0.80613 -17.43458,0.31345 -34.73095,-4.97503 -51.69418,-11.67756 -9.24598,-4.0448 -11.7809,-4.9979 -20.91387,-9.6104 -13.71796,-6.92806 -27.2036,-15.20822 -40.63057,-23.73588 -6.95687,-4.00184 -15.38457,-8.98623 -22.39358,-12.43842 -17.67548,-8.70583 -35.79608,-14.27226 -54.06542,-16.99289 -5.29375,-0.64364 -10.58298,-1.41876 -15.88121,-1.93089 -25.76814,-2.49078 -51.63212,-2.0376 -77.3721,1.18908 -7.40126,1.31082 -13.81912,1.98481 -21.03937,4.87262 -2.94602,1.17828 -11.3433,5.92296 -14.17984,8.62491 -24.66936,23.49893 -21.12596,19.52292 -34.26599,35.81569 -3.74359,5.59276 -5.07944,7.21045 -8.36571,13.58999 -2.90794,5.64513 -5.25149,12.16532 -7.92804,18.14444 0,0 26.79596,-20.92419 26.79596,-20.92419 z" />
    <g
       id="g935"
       transform="matrix(0.81454775,0,0,0.81454775,-0.27405662,100.78359)"
       style="font-style:normal;font-weight:normal;font-size:10.5833px;line-height:1.25;font-family:sans-serif;fill:#1d5788;fill-opacity:1;stroke:none;stroke-width:0.264583">
      <path
         d="m 50.297755,95.660448 q 8.234263,0 13.307909,5.239992 5.073638,5.15681 5.073638,14.47235 v 27.03168 H 57.034881 V 116.9531 q 0,-5.48951 -2.744757,-8.40062 -2.744757,-2.99428 -7.485698,-2.99428 -4.824114,0 -7.652043,2.99428 -2.744758,2.91111 -2.744758,8.40062 v 25.45137 H 24.763205 V 96.32584 h 11.64442 v 5.73904 q 2.328881,-2.994283 5.905383,-4.657771 3.659673,-1.746661 7.984747,-1.746661 z"
         style="font-style:normal;font-variant:normal;font-weight:600;font-stretch:normal;font-size:10.5833px;line-height:1.25;font-family:Poppins;-inkscape-font-specification:'Poppins, Semi-Bold';font-variant-ligatures:normal;font-variant-caps:normal;font-variant-numeric:normal;font-variant-east-asian:normal;fill:#1d5788;fill-opacity:1;stroke:none;stroke-width:0.550165"
         id="path929" />
      <path
         d="m 122.57628,118.36707 q 0,2.49523 -0.33268,4.49142 H 88.557962 q 0.4159,4.99046 3.493329,7.81839 3.077454,2.82793 7.568871,2.82793 6.487598,0 9.232358,-5.57269 h 12.55934 q -1.99619,6.65396 -7.65204,10.97903 -5.65587,4.2419 -13.890134,4.2419 -6.653954,0 -11.977116,-2.91111 -5.23999,-2.99428 -8.234271,-8.40062 -2.911102,-5.40633 -2.911102,-12.47616 0,-7.15301 2.911102,-12.55934 2.911101,-5.40634 8.151091,-8.317443 5.23999,-2.911101 12.060296,-2.911101 6.570774,0 11.727594,2.827929 5.23999,2.827925 8.06792,8.067915 2.91111,5.15681 2.91111,11.89395 z m -12.0603,-3.32698 q -0.0832,-4.49142 -3.24381,-7.153 -3.16062,-2.74476 -7.735211,-2.74476 -4.325074,0 -7.319355,2.66159 -2.911101,2.5784 -3.576501,7.23617 z"
         style="font-style:normal;font-variant:normal;font-weight:600;font-stretch:normal;font-size:10.5833px;line-height:1.25;font-family:Poppins;-inkscape-font-specification:'Poppins, Semi-Bold';font-variant-ligatures:normal;font-variant-caps:normal;font-variant-numeric:normal;font-variant-east-asian:normal;fill:#1d5788;fill-opacity:1;stroke:none;stroke-width:0.550165"
         id="path931" />
      <path
         d="m 151.52086,143.15305 q -6.65395,0 -11.97711,-2.91111 -5.32316,-2.99428 -8.40062,-8.40062 -2.99428,-5.40633 -2.99428,-12.47616 0,-7.06983 3.07746,-12.47617 3.16062,-5.40633 8.56696,-8.317441 5.40634,-2.994273 12.06029,-2.994273 6.65396,0 12.0603,2.994273 5.40633,2.911111 8.48378,8.317441 3.16064,5.40634 3.16064,12.47617 0,7.06983 -3.24381,12.47616 -3.16063,5.40634 -8.65014,8.40062 -5.40634,2.91111 -12.14347,2.91111 z m 0,-10.14729 q 3.16063,0 5.90539,-1.49713 2.82793,-1.58032 4.49141,-4.65777 1.66349,-3.07746 1.66349,-7.4857 0,-6.57078 -3.49332,-10.06411 -3.41015,-3.5765 -8.40061,-3.5765 -4.99047,0 -8.40063,3.5765 -3.32697,3.49333 -3.32697,10.06411 0,6.57078 3.2438,10.14728 3.32698,3.49332 8.31744,3.49332 z"
         style="font-style:normal;font-variant:normal;font-weight:600;font-stretch:normal;font-size:10.5833px;line-height:1.25;font-family:Poppins;-inkscape-font-specification:'Poppins, Semi-Bold';font-variant-ligatures:normal;font-variant-caps:normal;font-variant-numeric:normal;font-variant-east-asian:normal;fill:#1d5788;fill-opacity:1;stroke:none;stroke-width:0.550165"
         id="path933" />
    </g>
    <g
       id="g957"
       style="font-style:normal;font-weight:normal;font-size:10.5833px;line-height:1.25;font-family:sans-serif;fill:#262626;fill-opacity:1;stroke:none;stroke-width:0.264583"
       transform="matrix(1.0819978,0,0,1.0819978,-40.217107,-11.88085)">
      <path
         d="m 195.76954,163.23751 v 14.55552 h 19.54599 v 9.23237 h -19.54599 v 15.38727 h 22.04122 v 9.48188 h -33.68564 v -58.13892 h 33.68564 v 9.48188 z"
         style="font-style:normal;font-variant:normal;font-weight:600;font-stretch:normal;font-size:10.5833px;line-height:1.25;font-family:Poppins;-inkscape-font-specification:'Poppins, Semi-Bold';font-variant-ligatures:normal;font-variant-caps:normal;font-variant-numeric:normal;font-variant-east-asian:normal;fill:#262626;fill-opacity:1;stroke:none;stroke-width:0.550165"
         id="path937" />
      <path
         d="m 246.00686,212.64312 q -5.65585,0 -10.14727,-1.99618 -4.49142,-2.07937 -7.153,-5.57269 -2.57841,-3.49333 -2.82793,-7.73522 h 11.72759 q 0.33267,2.66158 2.5784,4.40824 2.32889,1.74666 5.73904,1.74666 3.32698,0 5.15682,-1.33079 1.913,-1.33079 1.913,-3.41015 0,-2.24571 -2.32888,-3.32697 -2.24571,-1.16445 -7.23617,-2.49524 -5.15682,-1.24762 -8.4838,-2.5784 -3.24379,-1.3308 -5.65585,-4.07555 -2.32889,-2.74476 -2.32889,-7.40253 0,-3.82602 2.16253,-6.98665 2.24572,-3.16063 6.32126,-4.99047 4.15872,-1.82983 9.73141,-1.82983 8.23427,0 13.14156,4.15872 4.90729,4.07554 5.40634,11.0622 h -11.14537 q -0.24953,-2.74476 -2.32888,-4.32507 -1.9962,-1.66349 -5.40635,-1.66349 -3.16062,0 -4.90729,1.16444 -1.66349,1.16444 -1.66349,3.24381 0,2.32888 2.32889,3.5765 2.32888,1.16444 7.23617,2.41205 4.99047,1.24762 8.23428,2.57841 3.24379,1.33079 5.57268,4.15873 2.41205,2.74474 2.49523,7.31934 0,3.99237 -2.2457,7.15301 -2.16254,3.16062 -6.32126,4.99046 -4.07555,1.74666 -9.56507,1.74666 z"
         style="font-style:normal;font-variant:normal;font-weight:600;font-stretch:normal;font-size:10.5833px;line-height:1.25;font-family:Poppins;-inkscape-font-specification:'Poppins, Semi-Bold';font-variant-ligatures:normal;font-variant-caps:normal;font-variant-numeric:normal;font-variant-east-asian:normal;fill:#262626;fill-opacity:1;stroke:none;stroke-width:0.550165"
         id="path939" />
      <path
         d="m 270.70951,188.85523 q 0,-7.153 2.9111,-12.47616 2.91111,-5.40634 8.06792,-8.31745 5.15682,-2.99427 11.81078,-2.99427 8.56696,0 14.13965,4.32507 5.65586,4.24189 7.56887,11.97711 h -12.55934 q -0.99809,-2.99428 -3.41015,-4.65777 -2.32889,-1.74666 -5.82221,-1.74666 -4.99047,0 -7.90157,3.65968 -2.91111,3.5765 -2.91111,10.23045 0,6.57079 2.91111,10.23046 2.9111,3.5765 7.90157,3.5765 7.06983,0 9.23236,-6.32126 h 12.55934 q -1.91301,7.4857 -7.56887,11.89395 -5.65587,4.40824 -14.13965,4.40824 -6.65396,0 -11.81078,-2.91111 -5.15681,-2.99427 -8.06792,-8.31744 -2.9111,-5.40633 -2.9111,-12.55934 z"
         style="font-style:normal;font-variant:normal;font-weight:600;font-stretch:normal;font-size:10.5833px;line-height:1.25;font-family:Poppins;-inkscape-font-specification:'Poppins, Semi-Bold';font-variant-ligatures:normal;font-variant-caps:normal;font-variant-numeric:normal;font-variant-east-asian:normal;fill:#262626;fill-opacity:1;stroke:none;stroke-width:0.550165"
         id="path941" />
      <path
         d="m 335.41916,172.96892 q 2.24571,-3.65967 5.82221,-5.73904 3.65968,-2.07936 8.31745,-2.07936 v 12.22664 h -3.07746 q -5.48951,0 -8.31744,2.57841 -2.74476,2.5784 -2.74476,8.98284 v 22.95614 h -11.64442 v -46.07863 h 11.64442 z"
         style="font-style:normal;font-variant:normal;font-weight:600;font-stretch:normal;font-size:10.5833px;line-height:1.25;font-family:Poppins;-inkscape-font-specification:'Poppins, Semi-Bold';font-variant-ligatures:normal;font-variant-caps:normal;font-variant-numeric:normal;font-variant-east-asian:normal;fill:#262626;fill-opacity:1;stroke:none;stroke-width:0.550165"
         id="path943" />
      <path
         d="m 363.28254,160.3264 q -3.07746,0 -5.15681,-1.913 -1.99619,-1.9962 -1.99619,-4.9073 0,-2.91111 1.99619,-4.82412 2.07935,-1.99618 5.15681,-1.99618 3.07745,0 5.07364,1.99618 2.07936,1.91301 2.07936,4.82412 0,2.9111 -2.07936,4.9073 -1.99619,1.913 -5.07364,1.913 z m 5.73904,5.48952 v 46.07863 h -11.64442 v -46.07863 z"
         style="font-style:normal;font-variant:normal;font-weight:600;font-stretch:normal;font-size:10.5833px;line-height:1.25;font-family:Poppins;-inkscape-font-specification:'Poppins, Semi-Bold';font-variant-ligatures:normal;font-variant-caps:normal;font-variant-numeric:normal;font-variant-east-asian:normal;fill:#262626;fill-opacity:1;stroke:none;stroke-width:0.550165"
         id="path945" />
      <path
         d="m 394.05705,175.38098 v 22.29074 q 0,2.32889 1.08127,3.41015 1.16444,0.9981 3.82603,0.9981 h 5.40633 v 9.81458 h -7.31934 q -14.72188,0 -14.72188,-14.306 v -22.20757 h -5.48951 v -9.56506 h 5.48951 v -11.3949 h 11.72759 v 11.3949 h 10.31363 v 9.56506 z"
         style="font-style:normal;font-variant:normal;font-weight:600;font-stretch:normal;font-size:10.5833px;line-height:1.25;font-family:Poppins;-inkscape-font-specification:'Poppins, Semi-Bold';font-variant-ligatures:normal;font-variant-caps:normal;font-variant-numeric:normal;font-variant-east-asian:normal;fill:#262626;fill-opacity:1;stroke:none;stroke-width:0.550165"
         id="path947" />
      <path
         d="m 433.23212,212.64312 q -6.65396,0 -11.97712,-2.91111 -5.32317,-2.99427 -8.40062,-8.40061 -2.99428,-5.40634 -2.99428,-12.47617 0,-7.06982 3.07746,-12.47616 3.16062,-5.40634 8.56695,-8.31745 5.40635,-2.99427 12.0603,-2.99427 6.65396,0 12.06029,2.99427 5.40635,2.91111 8.48379,8.31745 3.16066,5.40634 3.16066,12.47616 0,7.06983 -3.24381,12.47617 -3.16067,5.40634 -8.65016,8.40061 -5.40634,2.91111 -12.14346,2.91111 z m 0,-10.14728 q 3.16062,0 5.90538,-1.49714 2.82793,-1.58032 4.49142,-4.65777 1.66348,-3.07745 1.66348,-7.4857 0,-6.57077 -3.49332,-10.0641 -3.41015,-3.5765 -8.40062,-3.5765 -4.99047,0 -8.40062,3.5765 -3.32697,3.49333 -3.32697,10.0641 0,6.57079 3.2438,10.14729 3.32698,3.49332 8.31745,3.49332 z"
         style="font-style:normal;font-variant:normal;font-weight:600;font-stretch:normal;font-size:10.5833px;line-height:1.25;font-family:Poppins;-inkscape-font-specification:'Poppins, Semi-Bold';font-variant-ligatures:normal;font-variant-caps:normal;font-variant-numeric:normal;font-variant-east-asian:normal;fill:#262626;fill-opacity:1;stroke:none;stroke-width:0.550165"
         id="path949" />
      <path
         d="m 471.74171,160.3264 q -3.07743,0 -5.15678,-1.913 -1.99619,-1.9962 -1.99619,-4.9073 0,-2.91111 1.99619,-4.82412 2.07935,-1.99618 5.15678,-1.99618 3.07752,0 5.07371,1.99618 2.07934,1.91301 2.07934,4.82412 0,2.9111 -2.07934,4.9073 -1.99619,1.913 -5.07371,1.913 z m 5.73906,5.48952 v 46.07863 h -11.64441 v -46.07863 z"
         style="font-style:normal;font-variant:normal;font-weight:600;font-stretch:normal;font-size:10.5833px;line-height:1.25;font-family:Poppins;-inkscape-font-specification:'Poppins, Semi-Bold';font-variant-ligatures:normal;font-variant-caps:normal;font-variant-numeric:normal;font-variant-east-asian:normal;fill:#262626;fill-opacity:1;stroke:none;stroke-width:0.550165"
         id="path951" />
      <path
         d="m 500.60328,172.96892 q 2.24572,-3.65967 5.8222,-5.73904 3.65971,-2.07936 8.31744,-2.07936 v 12.22664 h -3.07743 q -5.48953,0 -8.31745,2.57841 -2.74476,2.5784 -2.74476,8.98284 v 22.95614 h -11.64441 v -46.07863 h 11.64441 z"
         style="font-style:normal;font-variant:normal;font-weight:600;font-stretch:normal;font-size:10.5833px;line-height:1.25;font-family:Poppins;-inkscape-font-specification:'Poppins, Semi-Bold';font-variant-ligatures:normal;font-variant-caps:normal;font-variant-numeric:normal;font-variant-east-asian:normal;fill:#262626;fill-opacity:1;stroke:none;stroke-width:0.550165"
         id="path953" />
      <path
         d="m 565.39608,187.85714 q 0,2.49524 -0.33244,4.49142 h -33.68567 q 0.41574,4.99047 3.49334,7.8184 3.07743,2.82793 7.56887,2.82793 6.48762,0 9.23239,-5.57269 h 12.55935 q -1.99619,6.65395 -7.6521,10.97903 -5.65582,4.24189 -13.89012,4.24189 -6.65392,0 -11.97708,-2.91111 -5.24,-2.99427 -8.23429,-8.40061 -2.91114,-5.40634 -2.91114,-12.47617 0,-7.153 2.91114,-12.55933 2.91114,-5.40635 8.15107,-8.31745 5.24,-2.9111 12.0603,-2.9111 6.57078,0 11.72763,2.82793 5.24001,2.82793 8.06792,8.06792 2.91106,5.15681 2.91106,11.89394 z m -12.06031,-3.32697 q -0.0833,-4.49143 -3.24373,-7.15301 -3.16067,-2.74475 -7.73525,-2.74475 -4.32506,0 -7.31934,2.66158 -2.91115,2.57841 -3.57649,7.23618 z"
         style="font-style:normal;font-variant:normal;font-weight:600;font-stretch:normal;font-size:10.5833px;line-height:1.25;font-family:Poppins;-inkscape-font-specification:'Poppins, Semi-Bold';font-variant-ligatures:normal;font-variant-caps:normal;font-variant-numeric:normal;font-variant-east-asian:normal;fill:#262626;fill-opacity:1;stroke:none;stroke-width:0.550165"
         id="path955" />
    </g>
    <path
       style="font-style:normal;font-weight:normal;font-size:10.5833px;line-height:1.25;font-family:sans-serif;fill:#262626;fill-opacity:1;fill-rule:evenodd;stroke:none;stroke-width:37.1827;stroke-linecap:round;stroke-linejoin:round;stroke-opacity:0.311275"
       id="path959"
       d="m 10.828859,241.68055 c 16.170697,-5.328 33.682553,-2.84716 50.268574,-1.31471 17.246135,1.89454 34.461498,4.18896 51.800437,5.08618 9.1363,0.47276 11.02197,0.35236 19.85322,0.32209 10.34425,-0.61942 5.39788,-0.17604 14.84517,-1.26064 0,0 12.83596,-9.58097 12.83596,-9.58097 v 0 c -9.6292,1.38706 -4.59173,0.79949 -15.12078,1.68936 -9.09187,0.21932 -10.75666,0.38755 -20.17345,0.05 -17.40766,-0.62385 -34.696994,-2.78362 -51.972528,-4.88948 -16.118788,-1.774 -32.828827,-4.48285 -48.854148,-0.65663 0,0 -13.482455,10.55474 -13.482455,10.55474 z" />
  </g>
</svg>
